<svg width="70" height="71" viewBox="0 0 70 71" fill="none" xmlns="http://www.w3.org/2000/svg">
<g clip-path="url(#clip0_5826_59)">
<path d="M21.2761 31.5658V31.5286C21.2761 31.1008 21.3511 30.6916 21.5011 30.301C21.651 29.9103 21.8572 29.5755 22.1197 29.2965C22.3821 28.9989 22.7008 28.7757 23.057 28.6083C23.4131 28.4409 23.8255 28.3665 24.2567 28.3665C24.7816 28.3665 25.2315 28.4595 25.6626 28.6641C26.075 28.8687 26.4874 29.1477 26.8811 29.5011L28.3057 27.8642C28.0808 27.641 27.8183 27.4178 27.5372 27.2318C27.256 27.0458 26.9748 26.8784 26.6374 26.7296C26.3187 26.5994 25.9625 26.4878 25.5689 26.4134C25.1752 26.339 24.7441 26.3018 24.2567 26.3018C23.4694 26.3018 22.7383 26.432 22.1009 26.711C21.4448 26.99 20.8825 27.362 20.4138 27.8456C19.9452 28.3293 19.589 28.8873 19.3078 29.5197C19.0454 30.1521 18.9142 30.8404 18.9142 31.5658V31.603C18.9142 32.3285 19.0454 33.0167 19.3078 33.6491C19.5703 34.2816 19.9452 34.8396 20.4138 35.3046C20.8825 35.7696 21.4448 36.1416 22.0822 36.4207C22.7195 36.6997 23.4131 36.8299 24.1817 36.8299C24.6878 36.8299 25.119 36.7927 25.5314 36.6997C25.925 36.6253 26.3 36.4951 26.6374 36.3463C26.9748 36.1788 27.2747 35.9928 27.5747 35.7696C27.8558 35.5464 28.137 35.3046 28.3995 35.007L26.9748 33.5747C26.5811 33.9467 26.1687 34.2257 25.7751 34.449C25.3627 34.6536 24.8753 34.7652 24.2942 34.7652C23.863 34.7652 23.4506 34.6722 23.0945 34.5048C22.7195 34.3374 22.4196 34.1141 22.1572 33.8165C21.8947 33.5189 21.6885 33.1841 21.5573 32.7935C21.3511 32.4215 21.2761 32.0122 21.2761 31.5658ZM36.0477 32.4029H33.3296L34.698 29.1105L36.0477 32.4029ZM37.791 36.6439H40.153L35.7665 26.4134H33.6857L29.2992 36.6439H31.5862L32.5235 34.3746H36.8537L37.791 36.6439ZM47.7824 29.9847C47.7824 30.4126 47.6324 30.766 47.3325 31.0264C47.0326 31.2868 46.6014 31.417 46.0578 31.417H43.7709V28.4967H46.0016C46.5639 28.4967 46.9951 28.6269 47.295 28.8501C47.6137 29.0919 47.7637 29.4639 47.7637 29.9475V29.9847H47.7824ZM50.3693 36.6439L47.8761 33.0167C48.5322 32.7749 49.0571 32.4029 49.4695 31.882C49.8819 31.3612 50.0694 30.6916 50.0694 29.8731V29.8359C50.0694 28.8687 49.7694 28.0874 49.1883 27.5108C48.4947 26.8226 47.5012 26.4878 46.2078 26.4878H41.5214V36.6439H43.7709V33.3887H45.5142H45.5517L47.7449 36.6439H50.3693ZM56.9303 28.5525H60.042V26.4878H51.569V28.5525H54.6808V36.6439H56.9303V28.5525ZM64.2036 34.6536V32.5145H69.0212V30.5242H64.2036V28.4595H69.696V26.4692H61.9916V36.6439H69.771V34.6536H64.2036Z" fill="white"/>
<path d="M22.4009 42.038H20.6763L21.5386 40.0477L22.4009 42.038ZM23.2257 44.0097H24.163L21.951 38.9874H21.1262L18.9142 44.0097H19.814L20.3388 42.8006H22.7195L23.2257 44.0097ZM28.4369 43.2284C28.5307 43.0424 28.5682 42.8378 28.5682 42.596V42.5774C28.5682 42.3728 28.5307 42.1868 28.4557 42.038C28.3807 41.8892 28.287 41.7403 28.1558 41.6287C28.0245 41.5171 27.8558 41.4055 27.6496 41.3311C27.4434 41.2567 27.2185 41.1823 26.956 41.1079C26.7124 41.0521 26.5249 40.9963 26.3562 40.9405C26.2062 40.8847 26.075 40.8289 25.9813 40.7731C25.8875 40.7173 25.8313 40.6429 25.7938 40.5685C25.7563 40.4941 25.7376 40.4197 25.7376 40.3081V40.2895C25.7376 40.1221 25.8126 39.9919 25.9438 39.8617C26.0937 39.7501 26.2812 39.6942 26.5436 39.6942C26.7686 39.6942 26.9935 39.7315 27.2185 39.8245C27.4434 39.9175 27.6684 40.0477 27.8933 40.1965L28.362 39.5268C28.0995 39.3222 27.8371 39.1734 27.5372 39.0618C27.2372 38.9502 26.9186 38.8944 26.5436 38.8944C26.3 38.8944 26.075 38.9316 25.8501 39.006C25.6439 39.0804 25.4564 39.1734 25.3064 39.3036C25.1565 39.4338 25.044 39.5826 24.9503 39.75C24.8565 39.9361 24.819 40.1221 24.819 40.3453V40.3639C24.819 40.5871 24.8565 40.7917 24.9315 40.9405C25.0065 41.1079 25.119 41.2381 25.2502 41.3497C25.4002 41.4613 25.5689 41.5543 25.7751 41.6287C25.9813 41.7031 26.225 41.7775 26.4874 41.8334C26.7311 41.8892 26.9186 41.945 27.0498 41.9822C27.1997 42.038 27.3122 42.0938 27.3872 42.1496C27.4622 42.2054 27.5372 42.2798 27.5559 42.3542C27.5934 42.4286 27.5934 42.503 27.5934 42.596V42.6146C27.5934 42.8006 27.5184 42.9494 27.3497 43.061C27.181 43.1726 26.9748 43.2284 26.6936 43.2284C26.3749 43.2284 26.0937 43.1726 25.8501 43.061C25.6064 42.9494 25.3627 42.782 25.119 42.5774L24.5941 43.2098C24.894 43.4888 25.2315 43.6748 25.5689 43.805C25.925 43.9353 26.3 44.0097 26.6749 44.0097C26.9373 44.0097 27.181 43.9725 27.4059 43.9167C27.6309 43.8423 27.8183 43.7492 27.9683 43.619C28.2307 43.5632 28.3432 43.4144 28.4369 43.2284ZM33.0296 43.2284C33.1233 43.0424 33.1608 42.8378 33.1608 42.596V42.5774C33.1608 42.3728 33.1233 42.1868 33.0484 42.038C32.9734 41.8892 32.8797 41.7403 32.7484 41.6287C32.6172 41.5171 32.4485 41.4055 32.2423 41.3311C32.0361 41.2567 31.8112 41.1823 31.5487 41.1079C31.305 41.0521 31.1176 40.9963 30.9489 40.9405C30.7989 40.8847 30.6677 40.8289 30.5739 40.7731C30.4802 40.7173 30.424 40.6429 30.3865 40.5685C30.349 40.4941 30.3303 40.4197 30.3303 40.3081V40.2895C30.3303 40.1221 30.4052 39.9919 30.5365 39.8617C30.6864 39.7501 30.8739 39.6942 31.1363 39.6942C31.3613 39.6942 31.5862 39.7315 31.8112 39.8245C32.0361 39.9175 32.2611 40.0477 32.486 40.1965L32.9546 39.5268C32.6922 39.3222 32.4298 39.1734 32.1298 39.0618C31.8299 38.9502 31.5112 38.8944 31.1363 38.8944C30.8926 38.8944 30.6677 38.9316 30.4427 39.006C30.2365 39.0804 30.0491 39.1734 29.8991 39.3036C29.7491 39.4338 29.6367 39.5826 29.5429 39.75C29.4492 39.9361 29.4117 40.1221 29.4117 40.3453V40.3639C29.4117 40.5871 29.4492 40.7917 29.5242 40.9405C29.5992 41.1079 29.7116 41.2381 29.8429 41.3497C29.9928 41.4613 30.1615 41.5543 30.3677 41.6287C30.5739 41.7031 30.8176 41.7775 31.0801 41.8334C31.3238 41.8892 31.5112 41.945 31.6424 41.9822C31.7924 42.038 31.9049 42.0938 31.9799 42.1496C32.0549 42.2054 32.1298 42.2798 32.1486 42.3542C32.1861 42.4286 32.1861 42.503 32.1861 42.596V42.6146C32.1861 42.8006 32.1111 42.9494 31.9424 43.061C31.7737 43.1726 31.5675 43.2284 31.2863 43.2284C30.9676 43.2284 30.6864 43.1726 30.4427 43.061C30.199 42.9494 29.9553 42.782 29.7116 42.5774L29.1868 43.2098C29.4867 43.4888 29.8241 43.6748 30.1615 43.805C30.5177 43.9353 30.8926 44.0097 31.2675 44.0097C31.53 44.0097 31.7737 43.9725 31.9986 43.9167C32.2236 43.8423 32.411 43.7492 32.561 43.619C32.8047 43.5632 32.9359 43.4144 33.0296 43.2284ZM38.2596 42.8378C38.3534 42.5588 38.4096 42.224 38.4096 41.8706V39.0432H37.5286V41.9078C37.5286 42.3728 37.4161 42.7076 37.1911 42.9494C36.9662 43.1726 36.6475 43.3028 36.2539 43.3028C35.8602 43.3028 35.5415 43.1726 35.3166 42.9308C35.0916 42.689 34.9792 42.3356 34.9792 41.8706V39.0432H34.1169V41.9078C34.1169 42.2612 34.1731 42.5774 34.2668 42.8564C34.3606 43.1354 34.5105 43.3586 34.698 43.5446C34.8854 43.7306 35.1104 43.8609 35.3728 43.9539C35.6353 44.0469 35.9352 44.0841 36.2539 44.0841C36.5913 44.0841 36.8725 44.0469 37.1537 43.9539C37.4161 43.8609 37.641 43.7306 37.8285 43.526C37.9972 43.34 38.1472 43.1168 38.2596 42.8378ZM41.7838 41.4985H40.4904V39.8245H41.7838C42.1212 39.8245 42.3649 39.8989 42.5524 40.0291C42.7398 40.1779 42.8336 40.3825 42.8336 40.6429V40.6615C42.8336 40.9219 42.7398 41.1265 42.5524 41.2753C42.3462 41.4241 42.1025 41.4985 41.7838 41.4985ZM43.8833 44.0097L42.5336 42.131C42.7023 42.0752 42.8711 42.0194 43.021 41.9264C43.171 41.8334 43.2835 41.7403 43.3959 41.6101C43.5084 41.4799 43.5834 41.3311 43.6396 41.1823C43.6959 41.0149 43.7334 40.8289 43.7334 40.6243V40.6057C43.7334 40.3825 43.6959 40.1965 43.6209 40.0105C43.5459 39.8245 43.4522 39.6756 43.321 39.5268C43.1522 39.378 42.9648 39.2478 42.7211 39.1548C42.4774 39.0618 42.1962 39.0246 41.8775 39.0246H39.6468V44.0097H40.5279V42.2798H41.6151H41.6339L42.8711 44.0097H43.8833ZM47.8386 42.038H46.114L46.9763 40.0477L47.8386 42.038ZM48.6635 44.0097H49.6007L47.3888 38.9874H46.5639L44.352 44.0097H45.2518L45.7766 42.8006H48.1573L48.6635 44.0097ZM54.0997 44.0097H54.8308V39.0246H53.9497V42.4658L51.2691 39.0246H50.463V44.0097H51.3441V40.4755L54.0997 44.0097ZM56.8365 41.5171C56.8365 41.2567 56.874 41.0335 56.949 40.8289C57.024 40.6243 57.1365 40.4383 57.2864 40.2709C57.4364 40.1035 57.6051 39.9919 57.8113 39.8989C58.0175 39.8059 58.2425 39.7687 58.4674 39.7687C58.7486 39.7687 59.011 39.8245 59.236 39.9361C59.4609 40.0477 59.6671 40.1965 59.8733 40.3825L60.4357 39.7315C60.3232 39.6198 60.192 39.5082 60.0608 39.4152C59.9296 39.3222 59.7796 39.2478 59.6296 39.1734C59.4797 39.099 59.2922 39.0432 59.1047 39.006C58.9173 38.9688 58.7111 38.9502 58.4861 38.9502C58.1112 38.9502 57.7551 39.0246 57.4364 39.1548C57.1177 39.285 56.8553 39.471 56.6116 39.7128C56.3866 39.9547 56.1992 40.2151 56.068 40.5313C55.9367 40.8475 55.8805 41.1823 55.8805 41.5357V41.5543C55.8805 41.9078 55.9367 42.2426 56.068 42.5588C56.1992 42.875 56.3679 43.1354 56.6116 43.3772C56.8365 43.6004 57.1177 43.7864 57.4176 43.9167C57.7363 44.0469 58.0737 44.1213 58.4299 44.1213C58.6549 44.1213 58.8798 44.1027 59.0673 44.0655C59.2547 44.0283 59.4422 43.9725 59.5921 43.8795C59.7608 43.805 59.9108 43.712 60.042 43.6004C60.192 43.4888 60.3232 43.3772 60.4544 43.2284L59.8921 42.6518C59.6859 42.8564 59.4609 43.0052 59.236 43.1168C59.011 43.2284 58.7486 43.2842 58.4487 43.2842C58.205 43.2842 57.98 43.247 57.7926 43.154C57.5864 43.061 57.4176 42.9308 57.2677 42.782C57.1177 42.6146 57.0052 42.4286 56.9303 42.224C56.874 42.0008 56.8365 41.7589 56.8365 41.5171ZM61.4105 44.0097H65.1596V43.2284H62.2915V41.9078H64.8034V41.1079H62.2915V39.8245H65.1221V39.0432H61.4105V44.0097ZM69.7523 42.596C69.7523 42.3728 69.7148 42.2054 69.6398 42.038C69.5648 41.8892 69.4711 41.7403 69.3398 41.6287C69.2086 41.5171 69.0399 41.4055 68.8337 41.3311C68.6275 41.2567 68.4026 41.1823 68.1401 41.1079C67.8964 41.0521 67.709 40.9963 67.5403 40.9405C67.3903 40.8847 67.2591 40.8289 67.1654 40.7731C67.0716 40.7173 67.0154 40.6429 66.9779 40.5685C66.9404 40.4941 66.9217 40.4197 66.9217 40.3081V40.2895C66.9217 40.1221 66.9967 39.9919 67.1279 39.8617C67.2778 39.7501 67.4653 39.6942 67.7277 39.6942C67.9527 39.6942 68.1776 39.7315 68.4026 39.8245C68.6275 39.9175 68.8525 40.0477 69.0774 40.1965L69.5461 39.5268C69.2836 39.3222 69.0212 39.1734 68.7212 39.0618C68.4213 38.9502 68.1026 38.8944 67.7277 38.8944C67.484 38.8944 67.2591 38.9316 67.0341 39.006C66.8279 39.0804 66.6405 39.1734 66.4905 39.3036C66.3406 39.4338 66.2281 39.5826 66.1343 39.75C66.0406 39.9361 66.0031 40.1221 66.0031 40.3453V40.3639C66.0031 40.5871 66.0406 40.7917 66.1156 40.9405C66.1906 41.1079 66.3031 41.2381 66.4343 41.3497C66.5842 41.4613 66.753 41.5543 66.9592 41.6287C67.1654 41.7031 67.4091 41.7775 67.6715 41.8334C67.9152 41.8892 68.1026 41.945 68.2339 41.9822C68.3838 42.038 68.4963 42.0938 68.5713 42.1496C68.6463 42.2054 68.7212 42.2798 68.74 42.3542C68.7775 42.4286 68.7775 42.503 68.7775 42.596V42.6146C68.7775 42.8006 68.7025 42.9494 68.5338 43.061C68.3651 43.1726 68.1589 43.2284 67.8777 43.2284C67.559 43.2284 67.2778 43.1726 67.0341 43.061C66.7904 42.9494 66.5468 42.782 66.3031 42.5774L65.7782 43.2098C66.0781 43.4888 66.4155 43.6748 66.753 43.805C67.1091 43.9353 67.484 44.0097 67.8589 44.0097C68.1214 44.0097 68.3651 43.9725 68.59 43.9167C68.815 43.8423 69.0024 43.7492 69.1524 43.619C69.3024 43.4888 69.4336 43.34 69.5273 43.154C69.7148 43.0424 69.7523 42.8378 69.7523 42.596Z" fill="white"/>
<path d="M52.8627 12.7231L57.774 7.84968C51.6817 2.93904 43.921 9.15527e-05 35.4855 9.15527e-05C27.05 9.15527e-05 19.2705 2.93904 13.1782 7.84968L18.0896 12.7231C22.9072 9.04014 28.9433 6.84523 35.4855 6.84523C42.0277 6.84523 48.045 9.04014 52.8627 12.7231Z" fill="white"/>
<path d="M12.8219 52.454C9.11024 47.6736 6.89826 41.6841 6.89826 35.1924C6.89826 28.7007 9.11024 22.7298 12.8219 17.9493L7.91052 13.0759C2.96168 19.1212 -0.00012207 26.822 -0.00012207 35.211C-0.00012207 43.5814 2.96168 51.3008 7.91052 57.3461L12.8219 52.454Z" fill="white"/>
<path d="M18.0896 57.7003L13.1782 62.5738C19.2705 67.4844 27.0312 70.4234 35.4667 70.4234C43.9023 70.4234 51.6817 67.4844 57.774 62.5738L52.8627 57.7003C48.045 61.3833 42.009 63.5782 35.4667 63.5782C28.9433 63.5596 22.9072 61.3647 18.0896 57.7003Z" fill="white"/>
</g>
<defs>
<clipPath id="clip0_5826_59">
<rect width="69.7524" height="70.4231" fill="white"/>
</clipPath>
</defs>
</svg>
